<?xml version="1.0" encoding="UTF-8"?>
<svg id="Layer_1" xmlns="http://www.w3.org/2000/svg" version="1.1" viewBox="0 0 1050 1400">
  <!-- Generator: Adobe Illustrator 29.0.0, SVG Export Plug-In . SVG Version: 2.1.0 Build 186)  -->
  <defs>
    <style>
      .st0 {
        fill: #2379f4;
      }
    </style>
  </defs>
  <path class="st0" d="M194.3,1395l818.7-548.2s36.9-20.5,36.9-52.9-46.7-57.1-46.7-57.1l-450.4-172.2c-16.1-6.1-38.2,11-17.5,32.6l149.1,144.2s41.4,39.3,41.4,65.1-25.4,48.8-25.4,48.8l-542.6,506.6c-19.3,18,6.8,50.7,36.4,33.2Z"/>
  <path class="st0" d="M855.7,5.1L36.9,553.2S0,573.7,0,606.1s46.7,57.1,46.7,57.1l450.4,172.3c16.1,6,38.3-11.1,17.5-32.6l-149.1-144.7s-41.4-39.3-41.4-65.1,25.4-48.8,25.4-48.8L891.8,38.1c19.6-18-6.4-50.7-36.1-33.1Z"/>
</svg>